<svg width="136" height="48" viewBox="0 0 136 48" fill="none" xmlns="http://www.w3.org/2000/svg">
<path d="M4.35156 8.65625C4.35156 6 5.14062 3.89844 6.71875 2.35156C8.29688 0.804688 10.4609 0.03125 13.2109 0.03125C14.3984 0.03125 15.5156 0.148438 16.5625 0.382812C17.625 0.617188 18.8438 1.02344 20.2188 1.60156L18.4609 5.67969C17.0234 5.19531 15.8203 4.95312 14.8516 4.95312C13.7578 4.95312 12.9062 5.26562 12.2969 5.89062C11.7031 6.51563 11.4062 7.42187 11.4062 8.60938V11.3516H17.4531V16.3906H11.4062V34.3438C11.4062 37.6406 10.5703 40.8047 8.89844 43.8359H4.35156V16.3906H0.203125V11.3516H4.35156V8.65625ZM21.0625 1.22656H28.2578V7.78906H21.0625V1.22656ZM21.0625 11.6328H28.2578V36.5H21.0625V11.6328ZM31.8906 36.5L40.6328 23.5391L32.5703 11.3516H40L45.2969 19.6016L50.5703 11.3516H58L49.9375 23.5391L58.6797 36.5L50.9453 36.5469L45.2969 27.5234L39.625 36.5469L31.8906 36.5ZM76.375 11.0234C79.8594 11.0234 82.5703 12.1016 84.5078 14.2578C86.4453 16.4141 87.4141 19.4766 87.4141 23.4453C87.4141 26.2266 86.8594 28.625 85.75 30.6406C84.6406 32.6562 83.0703 34.2031 81.0391 35.2812C79.0078 36.3438 76.6016 36.875 73.8203 36.875C72.5078 36.875 71.1016 36.7031 69.6016 36.3594V47.4922H62.4062V11.3516H67.9141L69.0156 14.3281C70.0781 13.1719 71.1875 12.3359 72.3438 11.8203C73.5156 11.2891 74.8594 11.0234 76.375 11.0234ZM73.3984 31.9766C75.5703 31.9766 77.2344 31.2734 78.3906 29.8672C79.5625 28.4609 80.1484 26.3984 80.1484 23.6797C80.1484 18.6172 78.3906 16.0938 74.875 16.1094C73.5938 16.1094 72.4922 16.4531 71.5703 17.1406C70.6641 17.8281 70.0078 18.7969 69.6016 20.0469V31.4609C70.5234 31.6797 71.2188 31.8203 71.6875 31.8828C72.1562 31.9453 72.7266 31.9766 73.3984 31.9766ZM98.9219 14.8438C100.5 12.25 102.711 10.9531 105.555 10.9531C106.164 10.9531 106.68 10.9922 107.102 11.0703C107.539 11.1328 108.094 11.2578 108.766 11.4453L107.945 17.7266C106.602 17.2422 105.414 17.0078 104.383 17.0234C103.258 17.0234 102.305 17.2266 101.523 17.6328C100.742 18.0234 100.086 18.6484 99.5547 19.5078V36.5H92.3359V11.3516H98.0547L98.9219 14.8438ZM122.875 10.7656C127.016 10.7656 130.188 11.8984 132.391 14.1641C134.594 16.4141 135.695 19.6484 135.695 23.8672C135.695 28.0859 134.594 31.3359 132.391 33.6172C130.188 35.8984 127.016 37.0391 122.875 37.0391C118.781 37.0391 115.625 35.9062 113.406 33.6406C111.188 31.3594 110.078 28.1016 110.078 23.8672C110.078 19.6484 111.18 16.4141 113.383 14.1641C115.586 11.8984 118.75 10.7656 122.875 10.7656ZM122.875 16.1562C119.172 16.1406 117.32 18.7109 117.32 23.8672C117.32 29.0234 119.172 31.6016 122.875 31.6016C126.594 31.6016 128.453 29.0234 128.453 23.8672C128.453 18.7109 126.594 16.1406 122.875 16.1562Z" fill="#007AFF"/>
</svg>
